<svg width="58" height="88" viewBox="0 0 58 88" fill="none" xmlns="http://www.w3.org/2000/svg">
<path fill-rule="evenodd" clip-rule="evenodd" d="M15.8472 0.125219C15.6137 0.358509 15.7194 3.11597 16.0053 4.24699C16.4169 5.87587 17.8242 8.60469 18.8556 9.77415L19.7485 10.7865L19.3433 11.5643C17.3899 15.3158 17.0453 18.8054 18.1867 23.272C18.7453 25.457 18.8115 25.9865 18.7987 28.1715C18.7779 31.7615 18.3737 33.0941 15.1756 40.115C13.7299 43.2886 10.0352 51.3966 6.96497 58.1332C3.39198 65.9727 1.40242 70.5513 1.43786 70.853L1.49288 71.3245L3.89573 71.3772C5.2174 71.4062 6.29858 71.5027 6.29858 71.5917C6.29858 71.6806 4.99954 74.9216 3.41177 78.7939C-0.381338 88.045 -0.105057 87.3018 0.106205 87.6791C0.338198 88.0936 1.71357 88.1059 4.65899 87.7198C14.744 86.3979 21.6504 81.3005 24.3861 73.1597L24.9396 71.5129L40.7108 71.4187C55.1612 71.3324 56.4983 71.2981 56.6798 71.0105C56.8236 70.7827 56.8099 70.6146 56.6303 70.3981C56.4124 70.1358 55.5227 70.0983 49.2913 70.0885L42.2 70.0775L41.7245 69.1071C41.119 67.8713 39.7108 66.7067 38.2768 66.2556L37.1947 65.9153L39.352 64.4743C43.6115 61.6286 46.7083 58.5508 49.4487 54.439C53.451 48.4342 55.4156 42.1413 56.0639 33.2518C56.5554 26.5111 55.0044 14.5434 53.2985 11.9122C53.0316 11.5006 53.0663 11.4394 54.0976 10.4989C56.4899 8.31732 57.927 5.14171 57.9938 1.88978C58.0426 -0.477227 57.8466 -0.526222 55.8941 1.36384C54.0563 3.14272 50.9872 5.19692 48.943 6.01589C48.3701 6.2456 48.2702 6.21752 47.1527 5.51313C42.0895 2.32225 35.5491 1.57791 29.5732 3.51245C28.744 3.78079 27.2443 4.43053 26.2403 4.95609L24.4151 5.91168L22.8481 5.21181C20.7788 4.28769 18.9905 2.94599 17.6642 1.32257C16.6753 0.112406 16.1838 -0.211525 15.8472 0.125219ZM56.6996 3.15592C56.4525 4.57525 55.7014 6.4101 54.832 7.71789C54.0361 8.91467 53.519 9.44438 51.9126 10.7079L51.4484 11.0731L52.1301 12.5557C53.3841 15.2829 53.5083 15.8442 53.5 18.7494C53.4932 21.0998 53.4372 21.5519 52.9864 22.8951C52.2966 24.951 51.3204 26.5371 49.6471 28.3215C45.159 33.1071 39.1995 34.9286 32.3059 33.6216C27.262 32.6654 21.654 34.3587 18.2746 37.8585C17.8649 38.2828 17.4697 38.6299 17.3964 38.6299C17.323 38.6299 17.677 37.676 18.1828 36.51C19.2431 34.0657 19.7843 32.092 20.0636 29.6507C20.2945 27.6342 20.1294 25.9671 19.3946 22.8923C18.7054 20.0091 18.6174 18.5065 19.0097 16.3278C19.3075 14.6734 20.3054 12.0888 20.753 11.8121C21.0379 11.6361 22.1252 12.4498 22.2456 12.9292C22.3146 13.2042 22.1719 13.8897 21.8841 14.6659C21.2358 16.4148 21.1075 17.4586 21.3791 18.7741C21.8483 21.0471 23.0328 22.4212 24.8478 22.7981L25.9075 23.018L25.7905 23.8995C25.6348 25.0725 25.9673 26.7693 26.6257 28.1645C27.3609 29.7221 27.8019 30.2292 28.2874 30.0751C28.595 29.9775 28.7001 29.734 28.7994 28.8883C28.9722 27.4179 29.5284 26.258 30.5681 25.1997C31.2986 24.456 31.4156 24.2445 31.2458 23.9749C31.1329 23.7955 30.9045 23.6221 30.7383 23.5893C30.2643 23.4961 28.8328 25.071 28.2071 26.3743L27.6389 27.5581L27.3811 26.8284C27.2326 26.4078 27.127 25.3799 27.1323 24.4026C27.1429 22.4001 27.4778 21.4697 29.0314 19.1263C31.8858 14.8215 35.8016 12.1527 42.9538 9.63753C50.1503 7.10677 53.0633 5.64824 55.6192 3.29593C56.1161 2.83839 56.5903 2.46095 56.6727 2.4568C56.7552 2.45265 56.7673 2.76735 56.6996 3.15592ZM19.6792 4.89485C20.8361 5.68253 22.0824 6.32719 23.6517 6.94942L24.7033 7.36644L26.0979 6.50659C31.0557 3.45026 37.9804 2.88739 43.5262 5.09026C45.0774 5.70628 46.6893 6.61701 46.667 6.86481C46.6585 6.95979 44.9715 7.6165 42.918 8.32372C36.5739 10.5093 33.0852 12.5327 29.9912 15.8214C29.2074 16.6545 28.5271 17.3361 28.4796 17.3361C28.4319 17.3361 28.3011 16.9715 28.189 16.5258C27.7599 14.8217 26.1744 13.2944 22.7263 11.2632C20.5589 9.98653 19.4415 8.81292 18.284 6.59779C17.6259 5.33863 17.0407 3.61816 17.0407 2.94317C17.0407 2.63035 17.1819 2.70667 17.8417 3.3762C18.2823 3.82337 19.1091 4.50685 19.6792 4.89485ZM40.2046 12.6963C38.7783 13.1105 36.9953 14.1654 35.9396 15.2195C34.4536 16.7039 33.0492 19.7581 33.0665 21.469L33.0733 22.1413L33.5294 21.5834C33.7802 21.2766 34.0201 21.0646 34.0625 21.1123C34.1049 21.1601 34.2857 21.6461 34.4641 22.1922C35.6518 25.8269 40.0768 27.4103 43.8654 25.5565C45.6993 24.6589 47.5187 22.4468 48.2454 20.2307C48.7333 18.743 48.7583 15.8043 48.2872 15.3334C47.6787 14.7247 47.4322 15.267 47.3532 17.3887C47.288 19.1429 47.2194 19.4457 46.5848 20.7808C45.237 23.617 43.1621 25.0643 40.4496 25.0603C37.435 25.056 35.2796 22.8128 35.5532 19.9645C35.6744 18.7029 35.9511 18.4341 36.3449 19.1956C37.0319 20.524 39.2331 20.7646 40.2532 19.623C41.2234 18.5372 41.203 16.9899 40.211 16.4257C39.4656 16.0018 39.5137 15.8286 40.3768 15.8286C41.1276 15.8286 41.6257 16.2036 42.1039 17.1288C42.4305 17.7607 42.3954 19.232 42.0371 19.9247C41.6197 20.732 40.4957 21.6115 39.6803 21.769C39.0233 21.896 39.0143 21.9081 39.4539 22.0748C40.1426 22.3358 41.7756 21.9258 42.8036 21.2333C44.0546 20.3909 44.7442 19.0296 44.7442 17.4028C44.7442 16.7376 44.6205 15.8974 44.4694 15.5357L44.1946 14.8781L45.553 14.214C47.122 13.4469 47.9065 12.8978 47.7118 12.7031C47.4442 12.4353 41.1226 12.4297 40.2046 12.6963ZM23.5991 16.2431C23.7235 16.3675 23.8252 16.8071 23.8252 17.22C23.8252 18.726 24.9021 20.1002 26.1642 20.2046C26.72 20.2505 26.7264 20.2703 26.4452 21.0768C26.2658 21.5915 26.1499 21.6702 25.5723 21.6702C24.0256 21.6702 22.7211 20.0919 22.5547 18.0192C22.4241 16.3926 22.9144 15.5585 23.5991 16.2431ZM54.7879 29.679C54.8013 32.2024 54.7085 34.8792 54.5661 36.086C53.0816 48.6537 47.1615 58.2898 37.186 64.3761C32.826 67.0361 27.9463 68.8173 22.7887 69.6311C20.5046 69.9916 13.9379 70.2059 14.9677 69.8863C22.7932 67.458 25.8855 66.0752 30.8468 62.7851C34.2084 60.5558 37.7367 57.3391 39.6275 54.7799C40.7398 53.2744 41.6305 51.5747 42.2149 49.8422C42.6476 48.56 42.7267 47.9966 42.7444 46.0734C42.7618 44.1963 42.6907 43.5718 42.3266 42.3988C41.5213 39.8047 40.1494 37.8087 38.1264 36.2882C36.8415 35.3224 36.7286 35.4215 39.5237 35.0614C42.5767 34.668 45.9384 33.2011 48.5584 31.1192C50.8359 29.3096 52.8935 26.6713 53.7404 24.4744C53.9555 23.9168 54.1963 23.2908 54.2757 23.0836C54.5446 22.3809 54.7643 25.209 54.7879 29.679ZM32.4001 34.9551C34.5088 35.3963 36.6559 36.5659 38.2356 38.134C40.6736 40.5537 41.683 43.1655 41.4852 46.5428C41.279 50.063 39.9145 52.769 36.5833 56.2631C31.1088 62.0059 23.8925 66.1169 15.1561 68.4699C12.5032 69.1845 8.32263 69.9083 6.86396 69.9055L6.01589 69.904L7.14665 69.4086C16.2349 65.4264 22.4348 61.896 27.807 57.644C32.9218 53.5957 35.6982 49.6905 35.6982 46.5445C35.6982 41.9043 30.69 38.5924 26.0336 40.1535C24.6079 40.6316 23.9093 41.0427 22.3176 42.3409C20.335 43.9577 19.581 44.9062 14.1814 52.5746C8.63001 60.4586 5.48934 64.8306 5.42413 64.7654C5.38776 64.729 6.38169 62.4589 7.63287 59.7204C14.2647 45.2054 14.7964 44.1452 16.7462 41.5464C19.4019 38.0068 22.2757 35.9573 25.9925 34.9523C27.2529 34.6114 30.7649 34.6131 32.4001 34.9551ZM31.3048 41.7249C34.7116 43.5809 35.3555 47.1294 32.9433 50.7533C32.1254 51.9819 28.0622 55.9215 26.0864 57.4013C22.0311 60.4386 17.3189 63.2377 11.6697 65.965C8.97677 67.2652 6.39583 68.4036 6.14122 68.4036C6.09034 68.4036 6.76219 67.8462 7.63419 67.1648C15.0949 61.335 21.3461 55.6718 25.4362 51.0367C27.8737 48.2745 28.0918 47.9531 27.7821 47.5799C27.3621 47.0738 26.9495 47.2811 25.998 48.4767C24.5548 50.2901 17.0583 57.7085 14.2139 60.138C11.6957 62.2891 7.46326 65.7385 6.02532 66.8117C5.2468 67.3928 5.26734 67.243 6.11729 66.1423C6.39752 65.7796 9.4057 61.5397 12.8023 56.7203C16.1987 51.9009 19.355 47.4671 19.816 46.8674C21.9571 44.0819 24.2817 42.0848 26.167 41.4115C27.6506 40.8818 30.0229 41.0263 31.3048 41.7249ZM37.3458 67.2801C37.8475 67.3877 38.6174 67.7136 39.0561 68.0041C39.8015 68.4975 40.7865 69.604 40.7865 69.9477C40.7865 70.0312 37.7124 70.0947 33.9549 70.0885L27.1233 70.0775L29.2906 69.3584C30.4826 68.9631 32.0939 68.3646 32.8713 68.0286C35.1217 67.0561 35.7841 66.9453 37.3458 67.2801ZM12.3293 71.5862C12.3293 72.0773 10.6637 76.5055 9.79732 78.3171C7.52941 83.0606 4.79581 86.0345 2.19979 86.5829C1.66099 86.6967 1.60238 86.6709 1.71169 86.3675C1.77991 86.1779 3.09328 82.9575 4.62997 79.2107C6.16685 75.4641 7.50811 72.1781 7.61063 71.9086L7.79683 71.4187H10.063C11.3095 71.4187 12.3293 71.4941 12.3293 71.5862ZM17.983 71.6906C17.983 72.2152 16.6663 75.9746 15.9388 77.5268C13.7448 82.2084 10.1422 85.4581 6.34645 86.1795L5.73471 86.2957L6.74749 85.2832C9.22328 82.8075 11.5521 78.423 13.1854 73.1618L13.7267 71.4187H15.8548C17.5833 71.4187 17.983 71.4697 17.983 71.6906ZM23.2194 72.6907C21.9256 77.0135 18.0901 81.5059 13.8548 83.6596L13.0247 84.0817L13.9751 82.9795C15.8646 80.7882 17.2364 78.2137 18.4677 74.5481C18.924 73.1896 19.2985 71.9297 19.2998 71.7485C19.302 71.4537 19.5312 71.4187 21.4512 71.4187H23.6002L23.2194 72.6907Z" fill="#630013"/>
</svg>
